<svg xmlns="http://www.w3.org/2000/svg" viewBox="0 0 1200 675" width="1200" height="675">
  <defs>
    <linearGradient id="bg" x1="0%" y1="0%" x2="100%" y2="100%">
      <stop offset="0%" stop-color="#030620"/>
      <stop offset="100%" stop-color="#0a1540"/>
    </linearGradient>
    <linearGradient id="gradText" x1="300" y1="0" x2="900" y2="0" gradientUnits="userSpaceOnUse">
      <stop offset="0%" stop-color="#8b5cf6"/>
      <stop offset="100%" stop-color="#ec4899"/>
    </linearGradient>
    <radialGradient id="glow" cx="75%" cy="25%" r="55%" gradientUnits="objectBoundingBox">
      <stop offset="0%" stop-color="#8b5cf6" stop-opacity="0.15"/>
      <stop offset="100%" stop-color="#030620" stop-opacity="0"/>
    </radialGradient>
  </defs>
  <rect width="1200" height="675" fill="url(#bg)"/>
  <rect width="1200" height="675" fill="url(#glow)"/>
  <g opacity="0.05" fill="#ffffff">
    <circle cx="110" cy="110" r="1.5"/><circle cx="230" cy="110" r="1.5"/><circle cx="350" cy="110" r="1.5"/><circle cx="470" cy="110" r="1.5"/><circle cx="590" cy="110" r="1.5"/><circle cx="710" cy="110" r="1.5"/><circle cx="830" cy="110" r="1.5"/><circle cx="950" cy="110" r="1.5"/><circle cx="1070" cy="110" r="1.5"/>
    <circle cx="110" cy="230" r="1.5"/><circle cx="230" cy="230" r="1.5"/><circle cx="350" cy="230" r="1.5"/><circle cx="470" cy="230" r="1.5"/><circle cx="590" cy="230" r="1.5"/><circle cx="710" cy="230" r="1.5"/><circle cx="830" cy="230" r="1.5"/><circle cx="950" cy="230" r="1.5"/><circle cx="1070" cy="230" r="1.5"/>
    <circle cx="110" cy="350" r="1.5"/><circle cx="230" cy="350" r="1.5"/><circle cx="350" cy="350" r="1.5"/><circle cx="470" cy="350" r="1.5"/><circle cx="590" cy="350" r="1.5"/><circle cx="710" cy="350" r="1.5"/><circle cx="830" cy="350" r="1.5"/><circle cx="950" cy="350" r="1.5"/><circle cx="1070" cy="350" r="1.5"/>
    <circle cx="110" cy="470" r="1.5"/><circle cx="230" cy="470" r="1.5"/><circle cx="350" cy="470" r="1.5"/><circle cx="470" cy="470" r="1.5"/><circle cx="590" cy="470" r="1.5"/><circle cx="710" cy="470" r="1.5"/><circle cx="830" cy="470" r="1.5"/><circle cx="950" cy="470" r="1.5"/><circle cx="1070" cy="470" r="1.5"/>
    <circle cx="110" cy="590" r="1.5"/><circle cx="230" cy="590" r="1.5"/><circle cx="350" cy="590" r="1.5"/><circle cx="470" cy="590" r="1.5"/><circle cx="590" cy="590" r="1.5"/><circle cx="710" cy="590" r="1.5"/><circle cx="830" cy="590" r="1.5"/><circle cx="950" cy="590" r="1.5"/><circle cx="1070" cy="590" r="1.5"/>
  </g>
  <rect x="475" y="125" width="250" height="28" rx="14" fill="#8b5cf6" fill-opacity="0.18"/>
  <rect x="475" y="125" width="250" height="28" rx="14" fill="none" stroke="#8b5cf6" stroke-width="1" stroke-opacity="0.45"/>
  <text x="600" y="144" font-family="'Inter', ui-sans-serif, system-ui, sans-serif" font-size="12" font-weight="600" letter-spacing="2.5" fill="#a78bfa" text-anchor="middle">AI TOOLS REVIEW</text>
  <text x="600" y="283" font-family="'Inter', ui-sans-serif, system-ui, sans-serif" font-size="84" font-weight="800" letter-spacing="-2" fill="#ffffff" text-anchor="middle">AI Tools for</text>
  <text x="600" y="388" font-family="'Inter', ui-sans-serif, system-ui, sans-serif" font-size="84" font-weight="800" letter-spacing="-2" fill="url(#gradText)" text-anchor="middle">YouTube (2026)</text>
  <rect x="536" y="408" width="128" height="3" rx="1.5" fill="#8b5cf6" fill-opacity="0.65"/>
  <text x="600" y="480" font-family="'Inter', ui-sans-serif, system-ui, sans-serif" font-size="22" font-weight="400" fill="#94a3b8" text-anchor="middle">What actually saves time on business channels</text>
  <g transform="translate(505, 520)" opacity="0.6">
    <rect width="190" height="36" rx="8" fill="#8b5cf6" fill-opacity="0.12" stroke="#8b5cf6" stroke-width="1" stroke-opacity="0.3"/>
    <text x="95" y="23" font-family="'Inter', ui-sans-serif, system-ui, sans-serif" font-size="13" font-weight="600" fill="#a78bfa" text-anchor="middle">sellontube.com</text>
  </g>
</svg>