<svg xmlns="http://www.w3.org/2000/svg" viewBox="0 0 1200 675" width="1200" height="675">
  <defs>
    <linearGradient id="bg" x1="0%" y1="0%" x2="100%" y2="100%">
      <stop offset="0%" stop-color="#030620"/>
      <stop offset="100%" stop-color="#0a1540"/>
    </linearGradient>
    <linearGradient id="gradText" x1="300" y1="0" x2="900" y2="0" gradientUnits="userSpaceOnUse">
      <stop offset="0%" stop-color="#34d399"/>
      <stop offset="100%" stop-color="#3b82f6"/>
    </linearGradient>
    <radialGradient id="glow" cx="75%" cy="25%" r="55%" gradientUnits="objectBoundingBox">
      <stop offset="0%" stop-color="#10b981" stop-opacity="0.12"/>
      <stop offset="100%" stop-color="#030620" stop-opacity="0"/>
    </radialGradient>
  </defs>
  <rect width="1200" height="675" fill="url(#bg)"/>
  <rect width="1200" height="675" fill="url(#glow)"/>
  <g opacity="0.05" fill="#ffffff">
    <circle cx="110" cy="110" r="1.5"/><circle cx="230" cy="110" r="1.5"/><circle cx="350" cy="110" r="1.5"/><circle cx="470" cy="110" r="1.5"/><circle cx="590" cy="110" r="1.5"/><circle cx="710" cy="110" r="1.5"/><circle cx="830" cy="110" r="1.5"/><circle cx="950" cy="110" r="1.5"/><circle cx="1070" cy="110" r="1.5"/>
    <circle cx="110" cy="230" r="1.5"/><circle cx="230" cy="230" r="1.5"/><circle cx="350" cy="230" r="1.5"/><circle cx="470" cy="230" r="1.5"/><circle cx="590" cy="230" r="1.5"/><circle cx="710" cy="230" r="1.5"/><circle cx="830" cy="230" r="1.5"/><circle cx="950" cy="230" r="1.5"/><circle cx="1070" cy="230" r="1.5"/>
    <circle cx="110" cy="350" r="1.5"/><circle cx="230" cy="350" r="1.5"/><circle cx="350" cy="350" r="1.5"/><circle cx="470" cy="350" r="1.5"/><circle cx="590" cy="350" r="1.5"/><circle cx="710" cy="350" r="1.5"/><circle cx="830" cy="350" r="1.5"/><circle cx="950" cy="350" r="1.5"/><circle cx="1070" cy="350" r="1.5"/>
    <circle cx="110" cy="470" r="1.5"/><circle cx="230" cy="470" r="1.5"/><circle cx="350" cy="470" r="1.5"/><circle cx="470" cy="470" r="1.5"/><circle cx="590" cy="470" r="1.5"/><circle cx="710" cy="470" r="1.5"/><circle cx="830" cy="470" r="1.5"/><circle cx="950" cy="470" r="1.5"/><circle cx="1070" cy="470" r="1.5"/>
    <circle cx="110" cy="590" r="1.5"/><circle cx="230" cy="590" r="1.5"/><circle cx="350" cy="590" r="1.5"/><circle cx="470" cy="590" r="1.5"/><circle cx="590" cy="590" r="1.5"/><circle cx="710" cy="590" r="1.5"/><circle cx="830" cy="590" r="1.5"/><circle cx="950" cy="590" r="1.5"/><circle cx="1070" cy="590" r="1.5"/>
  </g>
  <rect x="486" y="125" width="228" height="28" rx="14" fill="#0161EF" fill-opacity="0.18"/>
  <rect x="486" y="125" width="228" height="28" rx="14" fill="none" stroke="#10b981" stroke-width="1" stroke-opacity="0.45"/>
  <text x="600" y="144" font-family="'Inter', ui-sans-serif, system-ui, sans-serif" font-size="12" font-weight="600" letter-spacing="2.5" fill="#34d399" text-anchor="middle">YOUTUBE SEO</text>
  <text x="600" y="255" font-family="'Inter', ui-sans-serif, system-ui, sans-serif" font-size="72" font-weight="800" letter-spacing="-2" fill="#ffffff" text-anchor="middle">Find Your</text>
  <text x="600" y="345" font-family="'Inter', ui-sans-serif, system-ui, sans-serif" font-size="72" font-weight="800" letter-spacing="-2" fill="url(#gradText)" text-anchor="middle">Ranking Keywords</text>
  <rect x="556" y="370" width="88" height="3" rx="1.5" fill="#10b981" fill-opacity="0.65"/>
  <text x="600" y="420" font-family="'Inter', ui-sans-serif, system-ui, sans-serif" font-size="22" font-weight="400" fill="rgba(229,236,246,0.55)" text-anchor="middle">Three methods. One business-owner playbook.</text>
  <!-- Rank position indicators -->
  <g transform="translate(370, 460)">
    <rect width="52" height="52" rx="12" fill="#10b981" fill-opacity="0.15" stroke="#10b981" stroke-width="1" stroke-opacity="0.3"/>
    <text x="26" y="33" font-family="'Inter', ui-sans-serif, system-ui, sans-serif" font-size="22" font-weight="800" fill="#34d399" text-anchor="middle">#3</text>
  </g>
  <g transform="translate(440, 460)">
    <rect width="52" height="52" rx="12" fill="#3b82f6" fill-opacity="0.12" stroke="#3b82f6" stroke-width="1" stroke-opacity="0.25"/>
    <text x="26" y="33" font-family="'Inter', ui-sans-serif, system-ui, sans-serif" font-size="22" font-weight="800" fill="#60a5fa" text-anchor="middle">#7</text>
  </g>
  <g transform="translate(510, 460)">
    <rect width="52" height="52" rx="12" fill="#10b981" fill-opacity="0.15" stroke="#10b981" stroke-width="1" stroke-opacity="0.3"/>
    <text x="26" y="33" font-family="'Inter', ui-sans-serif, system-ui, sans-serif" font-size="22" font-weight="800" fill="#34d399" text-anchor="middle">#1</text>
  </g>
  <g transform="translate(580, 460)">
    <rect width="52" height="52" rx="12" fill="rgba(255,255,255,0.04)" stroke="rgba(255,255,255,0.1)" stroke-width="1"/>
    <text x="26" y="33" font-family="'Inter', ui-sans-serif, system-ui, sans-serif" font-size="22" font-weight="800" fill="rgba(255,255,255,0.25)" text-anchor="middle">#15</text>
  </g>
  <g transform="translate(650, 460)">
    <rect width="52" height="52" rx="12" fill="#10b981" fill-opacity="0.15" stroke="#10b981" stroke-width="1" stroke-opacity="0.3"/>
    <text x="26" y="33" font-family="'Inter', ui-sans-serif, system-ui, sans-serif" font-size="22" font-weight="800" fill="#34d399" text-anchor="middle">#2</text>
  </g>
  <g transform="translate(720, 460)">
    <rect width="52" height="52" rx="12" fill="rgba(255,255,255,0.04)" stroke="rgba(255,255,255,0.1)" stroke-width="1"/>
    <text x="26" y="33" font-family="'Inter', ui-sans-serif, system-ui, sans-serif" font-size="22" font-weight="800" fill="rgba(255,255,255,0.25)" text-anchor="middle">--</text>
  </g>
  <text x="600" y="550" font-family="'Inter', ui-sans-serif, system-ui, sans-serif" font-size="13" font-weight="400" fill="rgba(229,236,246,0.3)" text-anchor="middle">Your keyword positions across YouTube search</text>
  <text x="600" y="645" font-family="'Inter', ui-sans-serif, system-ui, sans-serif" font-size="14" text-anchor="middle"><tspan font-weight="700" fill="rgba(255,255,255,0.88)">SellOnTube</tspan><tspan font-weight="400" fill="rgba(229,236,246,0.32)"> &#8212; YouTube Acquisition for B2B</tspan></text>
</svg>