<svg xmlns="http://www.w3.org/2000/svg" viewBox="0 0 1200 675" width="1200" height="675">
  <defs>
    <linearGradient id="bg" x1="0%" y1="0%" x2="100%" y2="100%">
      <stop offset="0%" stop-color="#030620"/>
      <stop offset="100%" stop-color="#0a1540"/>
    </linearGradient>
    <linearGradient id="gradText" x1="200" y1="0" x2="1000" y2="0" gradientUnits="userSpaceOnUse">
      <stop offset="0%" stop-color="#3b82f6"/>
      <stop offset="100%" stop-color="#8b5cf6"/>
    </linearGradient>
    <linearGradient id="gradAccent" x1="0%" y1="0%" x2="100%" y2="0%">
      <stop offset="0%" stop-color="#22c55e"/>
      <stop offset="100%" stop-color="#3b82f6"/>
    </linearGradient>
    <radialGradient id="glow" cx="75%" cy="25%" r="55%" gradientUnits="objectBoundingBox">
      <stop offset="0%" stop-color="#3b82f6" stop-opacity="0.15"/>
      <stop offset="100%" stop-color="#030620" stop-opacity="0"/>
    </radialGradient>
  </defs>
  <rect width="1200" height="675" fill="url(#bg)"/>
  <rect width="1200" height="675" fill="url(#glow)"/>
  <g opacity="0.05" fill="#ffffff">
    <circle cx="110" cy="110" r="1.5"/><circle cx="230" cy="110" r="1.5"/><circle cx="350" cy="110" r="1.5"/><circle cx="470" cy="110" r="1.5"/><circle cx="590" cy="110" r="1.5"/><circle cx="710" cy="110" r="1.5"/><circle cx="830" cy="110" r="1.5"/><circle cx="950" cy="110" r="1.5"/><circle cx="1070" cy="110" r="1.5"/>
    <circle cx="110" cy="230" r="1.5"/><circle cx="230" cy="230" r="1.5"/><circle cx="350" cy="230" r="1.5"/><circle cx="470" cy="230" r="1.5"/><circle cx="590" cy="230" r="1.5"/><circle cx="710" cy="230" r="1.5"/><circle cx="830" cy="230" r="1.5"/><circle cx="950" cy="230" r="1.5"/><circle cx="1070" cy="230" r="1.5"/>
    <circle cx="110" cy="350" r="1.5"/><circle cx="230" cy="350" r="1.5"/><circle cx="350" cy="350" r="1.5"/><circle cx="470" cy="350" r="1.5"/><circle cx="590" cy="350" r="1.5"/><circle cx="710" cy="350" r="1.5"/><circle cx="830" cy="350" r="1.5"/><circle cx="950" cy="350" r="1.5"/><circle cx="1070" cy="350" r="1.5"/>
    <circle cx="110" cy="470" r="1.5"/><circle cx="230" cy="470" r="1.5"/><circle cx="350" cy="470" r="1.5"/><circle cx="470" cy="470" r="1.5"/><circle cx="590" cy="470" r="1.5"/><circle cx="710" cy="470" r="1.5"/><circle cx="830" cy="470" r="1.5"/><circle cx="950" cy="470" r="1.5"/><circle cx="1070" cy="470" r="1.5"/>
    <circle cx="110" cy="590" r="1.5"/><circle cx="230" cy="590" r="1.5"/><circle cx="350" cy="590" r="1.5"/><circle cx="470" cy="590" r="1.5"/><circle cx="590" cy="590" r="1.5"/><circle cx="710" cy="590" r="1.5"/><circle cx="830" cy="590" r="1.5"/><circle cx="950" cy="590" r="1.5"/><circle cx="1070" cy="590" r="1.5"/>
  </g>
  <rect x="480" y="90" width="240" height="28" rx="14" fill="#0161EF" fill-opacity="0.18"/>
  <rect x="480" y="90" width="240" height="28" rx="14" fill="none" stroke="#3b82f6" stroke-width="1" stroke-opacity="0.45"/>
  <text x="600" y="109" font-family="'Inter', ui-sans-serif, system-ui, sans-serif" font-size="12" font-weight="600" letter-spacing="2.5" fill="#60a5fa" text-anchor="middle">GOOGLE / NRG 2025 DATA</text>
  <text x="600" y="195" font-family="'Inter', ui-sans-serif, system-ui, sans-serif" font-size="72" font-weight="800" letter-spacing="-2" fill="#ffffff" text-anchor="middle">YouTube Drives</text>
  <text x="600" y="290" font-family="'Inter', ui-sans-serif, system-ui, sans-serif" font-size="100" font-weight="800" letter-spacing="-3" fill="url(#gradText)" text-anchor="middle">82%</text>
  <text x="600" y="360" font-family="'Inter', ui-sans-serif, system-ui, sans-serif" font-size="48" font-weight="700" letter-spacing="-1" fill="#ffffff" text-anchor="middle">of B2B Vendor Picks</text>
  <rect x="520" y="385" width="160" height="3" rx="1.5" fill="url(#gradAccent)"/>
  <g transform="translate(200, 430)">
    <rect x="0" y="0" width="190" height="56" rx="10" fill="#ffffff" fill-opacity="0.06" stroke="#3b82f6" stroke-width="1" stroke-opacity="0.2"/>
    <text x="95" y="25" font-family="'Inter', ui-sans-serif, system-ui, sans-serif" font-size="24" font-weight="800" fill="#3b82f6" text-anchor="middle">77%</text>
    <text x="95" y="44" font-family="'Inter', ui-sans-serif, system-ui, sans-serif" font-size="11" font-weight="500" fill="rgba(229,236,246,0.55)" text-anchor="middle">close in 12 weeks</text>
  </g>
  <g transform="translate(505, 430)">
    <rect x="0" y="0" width="190" height="56" rx="10" fill="#ffffff" fill-opacity="0.06" stroke="#22c55e" stroke-width="1" stroke-opacity="0.2"/>
    <text x="95" y="25" font-family="'Inter', ui-sans-serif, system-ui, sans-serif" font-size="24" font-weight="800" fill="#22c55e" text-anchor="middle">60%</text>
    <text x="95" y="44" font-family="'Inter', ui-sans-serif, system-ui, sans-serif" font-size="11" font-weight="500" fill="rgba(229,236,246,0.55)" text-anchor="middle">use AI in buying</text>
  </g>
  <g transform="translate(810, 430)">
    <rect x="0" y="0" width="190" height="56" rx="10" fill="#ffffff" fill-opacity="0.06" stroke="#eab308" stroke-width="1" stroke-opacity="0.2"/>
    <text x="95" y="25" font-family="'Inter', ui-sans-serif, system-ui, sans-serif" font-size="24" font-weight="800" fill="#eab308" text-anchor="middle">58%</text>
    <text x="95" y="44" font-family="'Inter', ui-sans-serif, system-ui, sans-serif" font-size="11" font-weight="500" fill="rgba(229,236,246,0.55)" text-anchor="middle">switched vendors</text>
  </g>
  <text x="600" y="540" font-family="'Inter', ui-sans-serif, system-ui, sans-serif" font-size="16" font-weight="400" fill="rgba(229,236,246,0.4)" text-anchor="middle">14 data points from Google's B2B Buyer Journey Study (n=2,063)</text>
  <text x="600" y="645" font-family="'Inter', ui-sans-serif, system-ui, sans-serif" font-size="14" text-anchor="middle"><tspan font-weight="700" fill="rgba(255,255,255,0.88)">SellOnTube</tspan><tspan font-weight="400" fill="rgba(229,236,246,0.32)"> — YouTube Acquisition for B2B</tspan></text>
</svg>