<svg xmlns="http://www.w3.org/2000/svg" viewBox="0 0 1200 675" width="1200" height="675">
  <defs>
    <linearGradient id="bg" x1="0%" y1="0%" x2="100%" y2="100%">
      <stop offset="0%" stop-color="#030620"/>
      <stop offset="100%" stop-color="#0a1540"/>
    </linearGradient>
    <linearGradient id="gradText" x1="300" y1="0" x2="900" y2="0" gradientUnits="userSpaceOnUse">
      <stop offset="0%" stop-color="#3b82f6"/>
      <stop offset="100%" stop-color="#8b5cf6"/>
    </linearGradient>
    <radialGradient id="glow" cx="75%" cy="25%" r="55%" gradientUnits="objectBoundingBox">
      <stop offset="0%" stop-color="#3b82f6" stop-opacity="0.15"/>
      <stop offset="100%" stop-color="#030620" stop-opacity="0"/>
    </radialGradient>
  </defs>
  <rect width="1200" height="675" fill="url(#bg)"/>
  <rect width="1200" height="675" fill="url(#glow)"/>
  <g opacity="0.05" fill="#ffffff">
    <circle cx="110" cy="110" r="1.5"/><circle cx="230" cy="110" r="1.5"/><circle cx="350" cy="110" r="1.5"/><circle cx="470" cy="110" r="1.5"/><circle cx="590" cy="110" r="1.5"/><circle cx="710" cy="110" r="1.5"/><circle cx="830" cy="110" r="1.5"/><circle cx="950" cy="110" r="1.5"/><circle cx="1070" cy="110" r="1.5"/>
    <circle cx="110" cy="230" r="1.5"/><circle cx="230" cy="230" r="1.5"/><circle cx="350" cy="230" r="1.5"/><circle cx="470" cy="230" r="1.5"/><circle cx="590" cy="230" r="1.5"/><circle cx="710" cy="230" r="1.5"/><circle cx="830" cy="230" r="1.5"/><circle cx="950" cy="230" r="1.5"/><circle cx="1070" cy="230" r="1.5"/>
    <circle cx="110" cy="350" r="1.5"/><circle cx="230" cy="350" r="1.5"/><circle cx="350" cy="350" r="1.5"/><circle cx="470" cy="350" r="1.5"/><circle cx="590" cy="350" r="1.5"/><circle cx="710" cy="350" r="1.5"/><circle cx="830" cy="350" r="1.5"/><circle cx="950" cy="350" r="1.5"/><circle cx="1070" cy="350" r="1.5"/>
    <circle cx="110" cy="470" r="1.5"/><circle cx="230" cy="470" r="1.5"/><circle cx="350" cy="470" r="1.5"/><circle cx="470" cy="470" r="1.5"/><circle cx="590" cy="470" r="1.5"/><circle cx="710" cy="470" r="1.5"/><circle cx="830" cy="470" r="1.5"/><circle cx="950" cy="470" r="1.5"/><circle cx="1070" cy="470" r="1.5"/>
    <circle cx="110" cy="590" r="1.5"/><circle cx="230" cy="590" r="1.5"/><circle cx="350" cy="590" r="1.5"/><circle cx="470" cy="590" r="1.5"/><circle cx="590" cy="590" r="1.5"/><circle cx="710" cy="590" r="1.5"/><circle cx="830" cy="590" r="1.5"/><circle cx="950" cy="590" r="1.5"/><circle cx="1070" cy="590" r="1.5"/>
  </g>
  <rect x="490" y="125" width="220" height="28" rx="14" fill="#0161EF" fill-opacity="0.18"/>
  <rect x="490" y="125" width="220" height="28" rx="14" fill="none" stroke="#3b82f6" stroke-width="1" stroke-opacity="0.45"/>
  <text x="600" y="144" font-family="'Inter', ui-sans-serif, system-ui, sans-serif" font-size="12" font-weight="600" letter-spacing="2.5" fill="#60a5fa" text-anchor="middle">LEAD GENERATION</text>
  <text x="600" y="273" font-family="'Inter', ui-sans-serif, system-ui, sans-serif" font-size="84" font-weight="800" letter-spacing="-2" fill="#ffffff" text-anchor="middle">YouTube Lead</text>
  <text x="600" y="373" font-family="'Inter', ui-sans-serif, system-ui, sans-serif" font-size="84" font-weight="800" letter-spacing="-2" fill="url(#gradText)" text-anchor="middle">Generation</text>
  <rect x="536" y="393" width="128" height="3" rx="1.5" fill="#3b82f6" fill-opacity="0.65"/>
  <text x="600" y="445" font-family="'Inter', ui-sans-serif, system-ui, sans-serif" font-size="22" font-weight="400" fill="#94a3b8" text-anchor="middle">Turn search traffic into booked calls</text>
  <g transform="translate(540, 490)" opacity="0.6">
    <rect width="120" height="36" rx="8" fill="#1e293b" stroke="#334155" stroke-width="1"/>
    <text x="60" y="23" font-family="'Inter', ui-sans-serif, system-ui, sans-serif" font-size="11" font-weight="600" fill="#e2e8f0" text-anchor="middle">Full Pipeline</text>
  </g>
  <text x="600" y="610" font-family="'Inter', ui-sans-serif, system-ui, sans-serif" font-size="14" font-weight="500" fill="#475569" text-anchor="middle">SellonTube.com</text>
</svg>